<svg xmlns="http://www.w3.org/2000/svg" xmlns:xlink="http://www.w3.org/1999/xlink" version="1.1" width="1000" height="1000" viewBox="0 0 1000 1000" xml:space="preserve">
<desc>Created with Fabric.js 3.5.0</desc>
<defs>
</defs>
<rect x="0" y="0" width="100%" height="100%" fill="#ffffff"/>
<g transform="matrix(3.9412 0 0 3.9412 483.6141 493.1515)" id="220880">
<g style="">
		<g transform="matrix(0.1517 0 0 -0.1517 -48.1528 -72.8835)" id="path220">
<path style="stroke: none; stroke-width: 1; stroke-dasharray: none; stroke-linecap: butt; stroke-dashoffset: 0; stroke-linejoin: miter; stroke-miterlimit: 4; is-custom-font: none; font-file-url: none; fill: rgb(207,165,80); fill-rule: evenodd; opacity: 1;" transform=" translate(-3809.16, -2226.61)" d="m 3678.92 2150.29 c 68.29 43.11 139.46 108.4 260.48 152.64 c -88.59 -0.49 -227.9 -55.87 -260.48 -152.64 v 0" stroke-linecap="round"/>
</g>
		<g transform="matrix(0.1517 0 0 -0.1517 -69.5765 -49.1416)" id="path222">
<path style="stroke: none; stroke-width: 1; stroke-dasharray: none; stroke-linecap: butt; stroke-dashoffset: 0; stroke-linejoin: miter; stroke-miterlimit: 4; is-custom-font: none; font-file-url: none; fill: rgb(207,165,80); fill-rule: evenodd; opacity: 1;" transform=" translate(-3667.985, -2070.185)" d="m 3757.59 2136.43 c -14.38 -6.38 -24.98 -10.47 -36.9 -13.32 c -22.22 -5.3 -40.76 -6.85 -59.86 -13.2 c -15.37 -5.07 -27.76 -12.6 -38.58 -21.66 c -9.88 -8.24 -17.16 -15.77 -22.84 -23.85 c -7.6 -10.82 -14.51 -25.71 -18.21 -40.05 c 28.7 40.35 63.44 60.31 94.44 64.82 c -54.01 -28.95 -72.13 -58.81 -97.26 -83.86 v -1.37 c 8.98 9.1 17.07 16.06 25.74 22.3 c 13.27 9.58 26.33 16.31 40.56 22.2 c 10.38 4.29 19.53 8.31 28.09 12.62 c 37.47 18.89 59.44 46.47 84.82 75.37 v 0" stroke-linecap="round"/>
</g>
		<g transform="matrix(0.1517 0 0 -0.1517 -77.0495 -55.1578)" id="path224">
<path style="stroke: none; stroke-width: 1; stroke-dasharray: none; stroke-linecap: butt; stroke-dashoffset: 0; stroke-linejoin: miter; stroke-miterlimit: 4; is-custom-font: none; font-file-url: none; fill: rgb(207,165,80); fill-rule: evenodd; opacity: 1;" transform=" translate(-3618.7298, -2109.805)" d="m 3578.05 2003.31 c 0 0.66 0.02 1.33 0.04 2.01 l -0.43 -1.32 l 0.39 -0.69 z m 7.47 32.85 c 8.84 23.25 23.59 47.79 33.5 59.54 c 10.68 12.64 18.41 26.9 25.67 41.71 c 12.86 26.21 23.83 56.16 27.36 78.89 c -16.34 -9.85 -32.54 -19.44 -50.94 -33.25 c -38.49 -30.88 -60.03 -64.04 -54.97 -109.48 c 1.58 -14.27 2.33 -42.59 7.86 -60.65 c -2.08 62.05 19.18 105.37 46.93 128.52 c -25.8 -44.25 -29.9 -75.92 -35.41 -105.28" stroke-linecap="round"/>
</g>
		<g transform="matrix(0.1517 0 0 -0.1517 -84.0468 -26.877)" id="path226">
<path style="stroke: none; stroke-width: 1; stroke-dasharray: none; stroke-linecap: butt; stroke-dashoffset: 0; stroke-linejoin: miter; stroke-miterlimit: 4; is-custom-font: none; font-file-url: none; fill: rgb(207,165,80); fill-rule: evenodd; opacity: 1;" transform=" translate(-3572.6351, -1923.485)" d="m 3646.23 1998.6 c -12.63 -8.61 -22.1 -14.38 -33.13 -19.12 c -20.56 -8.88 -38.39 -13.47 -55.67 -22.83 c -13.9 -7.51 -24.32 -16.97 -32.85 -27.62 c -7.76 -9.72 -13.18 -18.29 -16.88 -27.17 c -5.38 -12.87 -8.87 -30.33 -8.65 -46.01 c 19.45 46.24 49.41 73.5 78.99 84.6 c -41.18 -35.15 -54.85 -65.02 -70.73 -92.08 c 4.49 6.25 8.97 11.69 13.8 16.84 c 10.81 11.59 22.05 20.36 34.65 28.47 c 9.2 5.92 17.25 11.37 24.63 17.02 c 32.43 24.71 47.6 55.37 65.84 87.9 v 0" stroke-linecap="round"/>
</g>
		<g transform="matrix(0.1517 0 0 -0.1517 -94.2419 -30.9974)" id="path228">
<path style="stroke: none; stroke-width: 1; stroke-dasharray: none; stroke-linecap: butt; stroke-dashoffset: 0; stroke-linejoin: miter; stroke-miterlimit: 4; is-custom-font: none; font-file-url: none; fill: rgb(207,165,80); fill-rule: evenodd; opacity: 1;" transform=" translate(-3505.4457, -1950.615)" d="m 3500.81 1838.41 c -0.96 4.02 -1.45 8.57 -1.55 13.45 c -0.04 -3.68 -0.16 -7.38 -0.41 -11.11 c 0.64 -0.84 1.3 -1.63 1.96 -2.34 z m -1.54 17.89 c 0.63 27.49 11.88 63.43 20.44 79.47 c 7.57 14.18 11.86 29.47 15.57 45.2 c 6.58 27.8 10.45 58.98 8.64 81.85 c -13.75 -12.33 -27.44 -24.43 -42.28 -41 c -30.64 -36.66 -44.12 -72.75 -28.7 -116.47 c 3.97 -11.28 9.58 -31.94 16.77 -48.28 c -10.83 53.56 0.2 95.62 20.46 122.15 c -17.51 -55.69 -11.15 -89.2 -10.9 -122.92" stroke-linecap="round"/>
</g>
		<g transform="matrix(0.1517 0 0 -0.1517 -91.4897 -1.4959)" id="path230">
<path style="stroke: none; stroke-width: 1; stroke-dasharray: none; stroke-linecap: butt; stroke-dashoffset: 0; stroke-linejoin: miter; stroke-miterlimit: 4; is-custom-font: none; font-file-url: none; fill: rgb(207,165,80); fill-rule: evenodd; opacity: 1;" transform=" translate(-3523.5867, -1756.24)" d="m 3579.3 1860.59 c -10.22 -12.57 -18.14 -21.24 -28.1 -29.25 c -18.56 -14.96 -35.82 -24.6 -50.72 -39.2 c -11.97 -11.75 -19.53 -24.55 -24.62 -38.2 c -4.63 -12.43 -7.19 -22.99 -7.82 -33.44 c -0.99 -16.54 2.45 -38.28 9.78 -55.81 c 2.81 58.83 25.93 98.87 54.05 119.69 c -37.11 -55.94 -35.76 -92.46 -49.2 -129.63 c 0.56 -0.97 1.13 -1.93 1.73 -2.86 c 3.22 12.89 6.92 23.29 11.62 33.21 c 7.19 15.22 15.86 27.56 26.24 39.58 c 7.57 8.78 14.11 16.72 19.87 24.69 c 25.25 35.01 29.93 71.71 37.17 111.22 v 0" stroke-linecap="round"/>
</g>
		<g transform="matrix(0.1517 0 0 -0.1517 -103.5648 -4.5474)" id="path232">
<path style="stroke: none; stroke-width: 1; stroke-dasharray: none; stroke-linecap: butt; stroke-dashoffset: 0; stroke-linejoin: miter; stroke-miterlimit: 4; is-custom-font: none; font-file-url: none; fill: rgb(207,165,80); fill-rule: evenodd; opacity: 1;" transform=" translate(-3444.0188, -1776.335)" d="m 3484.45 1651.14 c -2.54 4.06 -4.78 8.8 -6.73 14.02 c 1.31 -3.91 2.53 -7.88 3.62 -11.96 c 1.05 -0.76 2.09 -1.45 3.11 -2.06 z m -8.44 18.93 c -9.51 29.4 -10.96 70.45 -7.85 89.77 c 2.73 17.09 1.59 34.5 -0.34 52.25 c -3.4 31.36 -10.97 65.59 -21.42 89.44 c -10.01 -16.82 -20.05 -33.35 -29.67 -54.97 c -18.91 -47.24 -19.75 -89.25 13.02 -131.66 c 8.71 -11.29 23.05 -32.77 37.26 -48.38 c -35.63 54.94 -41.1 106.3 -29.55 143.86 c 3.41 -69.24 24.99 -102.56 38.55 -140.31" stroke-linecap="round"/>
</g>
		<g transform="matrix(0.1517 0 0 -0.1517 -93.4482 24.4612)" id="path234">
<path style="stroke: none; stroke-width: 1; stroke-dasharray: none; stroke-linecap: butt; stroke-dashoffset: 0; stroke-linejoin: miter; stroke-miterlimit: 4; is-custom-font: none; font-file-url: none; fill: rgb(207,165,80); fill-rule: evenodd; opacity: 1;" transform=" translate(-3510.6757, -1585.21)" d="m 3548.18 1698.25 c -7.05 -14.44 -12.8 -24.53 -20.75 -34.35 c -14.82 -18.33 -29.66 -31.11 -40.9 -48.43 c -9.05 -13.91 -13.38 -28.1 -15.03 -42.67 c -1.52 -13.28 -1.4 -24.34 0.61 -34.9 c 3.4 -17.95 13.43 -40.97 26.44 -57.55 c -16.31 64.61 -3.14 113.96 20.99 142.98 c -24.44 -67.81 -11.13 -103.34 -18.2 -146.38 c 1.45 -1.68 2.92 -3.28 4.43 -4.78 c -0.02 13.48 1.07 24.54 3.26 35.33 c 3.35 16.55 8.95 30.46 16.31 44.37 c 5.36 10.15 9.89 19.3 13.65 28.31 c 16.46 39.59 11.9 77.21 9.19 118.07 v 0" stroke-linecap="round"/>
</g>
		<g transform="matrix(0.1517 0 0 -0.1517 -103.3567 23.1668)" id="path236">
<path style="stroke: none; stroke-width: 1; stroke-dasharray: none; stroke-linecap: butt; stroke-dashoffset: 0; stroke-linejoin: miter; stroke-miterlimit: 4; is-custom-font: none; font-file-url: none; fill: rgb(207,165,80); fill-rule: evenodd; opacity: 1;" transform=" translate(-3445.3997, -1593.735)" d="m 3484.84 1503.5 c -12.61 25.98 -21.08 57.19 -22.55 73.79 c -1.55 17.62 -7.09 34.85 -13.49 52.26 c -11.34 30.79 -27.51 63.69 -44 85.69 c -5.78 -18.67 -11.67 -37.01 -15.84 -60.42 c -7.02 -50.68 2.71 -92.88 46.22 -129.44 c 15.9 -13.39 47.3 -44.13 68.73 -53.15 c -63.53 46.48 -88.07 101.14 -87.31 145.11 c 20.09 -58.57 46.14 -85.58 68.24 -113.84" stroke-linecap="round"/>
</g>
		<g transform="matrix(0.1517 0 0 -0.1517 -86.6635 49.3947)" id="path238">
<path style="stroke: none; stroke-width: 1; stroke-dasharray: none; stroke-linecap: butt; stroke-dashoffset: 0; stroke-linejoin: miter; stroke-miterlimit: 4; is-custom-font: none; font-file-url: none; fill: rgb(207,165,80); fill-rule: evenodd; opacity: 1;" transform=" translate(-3555.3774, -1420.925)" d="m 3551.6 1543.11 c -1.78 -16.77 -3.87 -28.72 -8.33 -41.02 c -8.3 -22.88 -18.72 -40.09 -23.73 -60.98 c -4 -16.78 -3.08 -32.58 0.74 -48.04 c 3.5 -14.12 7.82 -25.45 13.89 -35.78 c 11.29 -19.19 33 -42.46 54.58 -55.65 c -45.54 60.31 -53.29 117.52 -40.69 158.15 c 3.8 -81.16 33.21 -111.96 44.08 -160.14 l 1.67 -0.91 c -5.13 13.89 -8.22 25.59 -10.08 37.3 c -2.81 17.93 -2.35 33.81 -0.05 50.12 c 1.66 11.92 2.87 22.56 3.3 32.87 c 1.92 45.26 -17.07 82.76 -35.38 124.08 v 0" stroke-linecap="round"/>
</g>
		<g transform="matrix(0.1517 0 0 -0.1517 -95.6928 51.0794)" id="path240">
<path style="stroke: none; stroke-width: 1; stroke-dasharray: none; stroke-linecap: butt; stroke-dashoffset: 0; stroke-linejoin: miter; stroke-miterlimit: 4; is-custom-font: none; font-file-url: none; fill: rgb(207,165,80); fill-rule: evenodd; opacity: 1;" transform=" translate(-3495.915, -1409.83)" d="m 3594.34 1298.05 c -5.02 2.72 -10.2 6.25 -15.39 10.36 c 3.37 -3.03 6.68 -6.22 9.94 -9.61 c 1.91 -0.35 3.73 -0.61 5.45 -0.75 z m -24.89 18.47 c -26.33 24.07 -51.49 59.77 -60.34 78.66 c -8.31 17.75 -20.57 33.96 -33.78 50.16 c -23.33 28.63 -52.51 58.09 -77.84 76.27 c 1.12 -20.8 2.03 -41.28 6.64 -66.52 c 12.01 -54.1 38.07 -94.94 96.76 -120.74 c 20.45 -8.99 61.31 -30.4 87.19 -35.4 c -85 30.22 -129.34 82.23 -142.3 130.45 c 45.97 -65.74 87.47 -83.57 123.67 -112.88" stroke-linecap="round"/>
</g>
		<g transform="matrix(0.1517 0 0 -0.1517 -66.7431 73.1584)" id="path242">
<path style="stroke: none; stroke-width: 1; stroke-dasharray: none; stroke-linecap: butt; stroke-dashoffset: 0; stroke-linejoin: miter; stroke-miterlimit: 4; is-custom-font: none; font-file-url: none; fill: rgb(207,165,80); fill-rule: evenodd; opacity: 1;" transform=" translate(-3686.645, -1264.35)" d="m 3614.63 1388.5 c 4.91 -18.42 7.52 -31.78 7.75 -46.16 c 0.44 -26.84 -3.71 -48.2 -0.58 -71.91 c 2.51 -19.05 9.91 -35.64 20.26 -51.03 c 9.44 -14.01 18.62 -24.85 29.29 -34.11 c 20.2 -17.54 53.72 -36.43 82.45 -43.92 c -68.13 43.88 -97.88 97.11 -101.27 140.37 c 34.35 -77.1 74.12 -96.72 102.32 -140.64 c 1.28 -0.32 2.55 -0.62 3.81 -0.9 c -11.09 13.33 -19.14 24.88 -25.84 36.83 c -10.29 18.31 -16.22 35.35 -20.39 53.43 c -3.04 13.18 -6.06 24.88 -9.8 36.02 c -16.29 48.81 -51.73 83.26 -88 122.02 v 0" stroke-linecap="round"/>
</g>
		<g transform="matrix(0.1517 0 0 -0.1517 -78.4908 78.4288)" id="path244">
<path style="stroke: none; stroke-width: 1; stroke-dasharray: none; stroke-linecap: butt; stroke-dashoffset: 0; stroke-linejoin: miter; stroke-miterlimit: 4; is-custom-font: none; font-file-url: none; fill: rgb(207,165,80); fill-rule: evenodd; opacity: 1;" transform=" translate(-3609.28, -1229.6409)" d="m 3759.51 1139.61 c -2.14 0.48 -4.34 1.05 -6.58 1.71 c -103.76 4.15 -170.98 45.9 -202.69 94.64 c 62.94 -47.5 110.34 -58.93 154.08 -72.74 c -31.11 17.8 -61.12 40.88 -75.05 55.22 c -16.04 16.49 -35.66 30.24 -56.31 43.66 c -36.5 23.73 -79.55 46.7 -113.91 58.71 c 9.62 -21.83 18.9 -43.43 34.03 -69 c 34.74 -54.2 79.06 -90.17 152.09 -100.64 c 27.6 -3.95 86.76 -16.51 114.34 -11.56 v 0" stroke-linecap="round"/>
</g>
		<g transform="matrix(0.1517 0 0 -0.1517 -50.8033 87.7543)" id="path246">
<path style="stroke: none; stroke-width: 1; stroke-dasharray: none; stroke-linecap: butt; stroke-dashoffset: 0; stroke-linejoin: miter; stroke-miterlimit: 4; is-custom-font: none; font-file-url: none; fill: rgb(207,165,80); fill-rule: evenodd; opacity: 1;" transform=" translate(-3791.655, -1168.205)" d="m 3746.85 1243.46 c 11.03 -14.07 18.85 -25.12 24.94 -36.64 c -0.56 2.31 -1.06 4.65 -1.53 7 c -1.23 6.25 -2.05 12.64 -2.22 19.04 c -7 3.5 -14.08 7.02 -21.19 10.6 z m 46.38 -88.88 c 3.69 -9.18 7.74 -18.13 13.15 -27.11 c 8.06 -13.36 18.28 -24.64 30.08 -34.52 v 46.06 c -2.52 -2.31 -5.58 -4.1 -9.07 -5.19 c -10.07 -3.16 -20.58 0.43 -26.6 9.09 c -2.67 3.82 -5.18 7.71 -7.56 11.67" stroke-linecap="round"/>
</g>
		<g transform="matrix(0.1517 0 0 -0.1517 -60.9885 102.5808)" id="path248">
<path style="stroke: none; stroke-width: 1; stroke-dasharray: none; stroke-linecap: butt; stroke-dashoffset: 0; stroke-linejoin: miter; stroke-miterlimit: 4; is-custom-font: none; font-file-url: none; fill: rgb(207,165,80); fill-rule: evenodd; opacity: 1;" transform=" translate(-3724.58, -1070.525)" d="m 3836.46 1078.02 c -23.98 11.49 -50.48 19.25 -77.88 26.38 c -48.92 12.75 -104.37 22.73 -145.88 24.39 c 19.75 -18.92 39.02 -37.74 66.22 -58.78 c 48.31 -34.95 97.94 -56.42 157.54 -57.75 v 22.69 c -39.35 7.94 -70.35 24.61 -92.1 45.46 c 35.81 -15.85 65.6 -23.55 92.1 -27.78 v 25.39" stroke-linecap="round"/>
</g>
		<g transform="matrix(0.1517 0 0 -0.1517 48.1375 -72.8835)" id="path250">
<path style="stroke: none; stroke-width: 1; stroke-dasharray: none; stroke-linecap: butt; stroke-dashoffset: 0; stroke-linejoin: miter; stroke-miterlimit: 4; is-custom-font: none; font-file-url: none; fill: rgb(207,165,80); fill-rule: evenodd; opacity: 1;" transform=" translate(-4443.595, -2226.61)" d="m 4573.84 2150.29 c -68.29 43.11 -139.47 108.4 -260.49 152.64 c 88.6 -0.49 227.9 -55.87 260.49 -152.64 v 0" stroke-linecap="round"/>
</g>
		<g transform="matrix(0.1517 0 0 -0.1517 69.567 -49.1416)" id="path252">
<path style="stroke: none; stroke-width: 1; stroke-dasharray: none; stroke-linecap: butt; stroke-dashoffset: 0; stroke-linejoin: miter; stroke-miterlimit: 4; is-custom-font: none; font-file-url: none; fill: rgb(207,165,80); fill-rule: evenodd; opacity: 1;" transform=" translate(-4584.77, -2070.185)" d="m 4495.16 2136.43 c 14.39 -6.38 24.99 -10.47 36.91 -13.32 c 22.21 -5.3 40.75 -6.85 59.85 -13.2 c 15.37 -5.07 27.77 -12.6 38.58 -21.66 c 9.88 -8.24 17.16 -15.77 22.84 -23.85 c 7.6 -10.82 14.51 -25.71 18.21 -40.05 c -28.69 40.35 -63.44 60.31 -94.43 64.82 c 54 -28.95 72.13 -58.81 97.26 -83.86 v -1.37 c -8.98 9.1 -17.08 16.06 -25.75 22.3 c -13.26 9.58 -26.32 16.31 -40.56 22.2 c -10.37 4.29 -19.53 8.31 -28.08 12.62 c -37.47 18.89 -59.44 46.47 -84.83 75.37 v 0" stroke-linecap="round"/>
</g>
		<g transform="matrix(0.1517 0 0 -0.1517 77.0459 -55.1578)" id="path254">
<path style="stroke: none; stroke-width: 1; stroke-dasharray: none; stroke-linecap: butt; stroke-dashoffset: 0; stroke-linejoin: miter; stroke-miterlimit: 4; is-custom-font: none; font-file-url: none; fill: rgb(207,165,80); fill-rule: evenodd; opacity: 1;" transform=" translate(-4634.029, -2109.805)" d="m 4674.7 2003.31 c 0.01 0.66 -0.01 1.33 -0.04 2.01 l 0.44 -1.32 l -0.4 -0.69 z m -7.47 32.85 c -8.83 23.25 -23.59 47.79 -33.5 59.54 c -10.68 12.64 -18.41 26.9 -25.67 41.71 c -12.86 26.21 -23.83 56.16 -27.35 78.89 c 16.33 -9.85 32.54 -19.44 50.93 -33.25 c 38.5 -30.88 60.03 -64.04 54.98 -109.48 c -1.58 -14.27 -2.33 -42.59 -7.87 -60.65 c 2.09 62.05 -19.17 105.37 -46.93 128.52 c 25.81 -44.25 29.91 -75.92 35.41 -105.28" stroke-linecap="round"/>
</g>
		<g transform="matrix(0.1517 0 0 -0.1517 84.0406 -26.877)" id="path256">
<path style="stroke: none; stroke-width: 1; stroke-dasharray: none; stroke-linecap: butt; stroke-dashoffset: 0; stroke-linejoin: miter; stroke-miterlimit: 4; is-custom-font: none; font-file-url: none; fill: rgb(207,165,80); fill-rule: evenodd; opacity: 1;" transform=" translate(-4680.1249, -1923.485)" d="m 4606.53 1998.6 c 12.63 -8.61 22.09 -14.38 33.13 -19.12 c 20.55 -8.88 38.38 -13.47 55.66 -22.83 c 13.9 -7.51 24.32 -16.97 32.86 -27.62 c 7.76 -9.72 13.18 -18.29 16.87 -27.17 c 5.38 -12.87 8.88 -30.33 8.66 -46.01 c -19.45 46.24 -49.42 73.5 -79 84.6 c 41.19 -35.15 54.85 -65.02 70.74 -92.08 c -4.49 6.25 -8.97 11.69 -13.8 16.84 c -10.82 11.59 -22.05 20.36 -34.66 28.47 c -9.2 5.92 -17.25 11.37 -24.63 17.02 c -32.43 24.71 -47.59 55.37 -65.83 87.9 v 0" stroke-linecap="round"/>
</g>
		<g transform="matrix(0.1517 0 0 -0.1517 94.2401 -30.9974)" id="path258">
<path style="stroke: none; stroke-width: 1; stroke-dasharray: none; stroke-linecap: butt; stroke-dashoffset: 0; stroke-linejoin: miter; stroke-miterlimit: 4; is-custom-font: none; font-file-url: none; fill: rgb(207,165,80); fill-rule: evenodd; opacity: 1;" transform=" translate(-4747.3102, -1950.615)" d="m 4751.94 1838.41 c 0.96 4.02 1.45 8.57 1.56 13.45 c 0.03 -3.68 0.16 -7.38 0.41 -11.11 c -0.65 -0.84 -1.3 -1.63 -1.97 -2.34 z m 1.55 17.89 c -0.63 27.49 -11.89 63.43 -20.45 79.47 c -7.56 14.18 -11.85 29.47 -15.56 45.2 c -6.58 27.8 -10.45 58.98 -8.64 81.85 c 13.75 -12.33 27.43 -24.43 42.28 -41 c 30.64 -36.66 44.11 -72.75 28.69 -116.47 c -3.97 -11.28 -9.58 -31.94 -16.77 -48.28 c 10.84 53.56 -0.19 95.62 -20.45 122.15 c 17.5 -55.69 11.15 -89.2 10.9 -122.92" stroke-linecap="round"/>
</g>
		<g transform="matrix(0.1517 0 0 -0.1517 91.4856 -1.4959)" id="path260">
<path style="stroke: none; stroke-width: 1; stroke-dasharray: none; stroke-linecap: butt; stroke-dashoffset: 0; stroke-linejoin: miter; stroke-miterlimit: 4; is-custom-font: none; font-file-url: none; fill: rgb(207,165,80); fill-rule: evenodd; opacity: 1;" transform=" translate(-4729.1699, -1756.24)" d="m 4673.46 1860.59 c 10.22 -12.57 18.13 -21.24 28.09 -29.25 c 18.56 -14.96 35.82 -24.6 50.72 -39.2 c 11.98 -11.75 19.53 -24.55 24.63 -38.2 c 4.63 -12.43 7.18 -22.99 7.81 -33.44 c 1 -16.54 -2.44 -38.28 -9.77 -55.81 c -2.81 58.83 -25.94 98.87 -54.06 119.69 c 37.12 -55.94 35.77 -92.46 49.2 -129.63 c -0.56 -0.97 -1.13 -1.93 -1.72 -2.86 c -3.23 12.89 -6.92 23.29 -11.62 33.21 c -7.19 15.22 -15.86 27.56 -26.25 39.58 c -7.56 8.78 -14.1 16.72 -19.86 24.69 c -25.26 35.01 -29.93 71.71 -37.17 111.22 v 0" stroke-linecap="round"/>
</g>
		<g transform="matrix(0.1517 0 0 -0.1517 103.562 -4.5474)" id="path262">
<path style="stroke: none; stroke-width: 1; stroke-dasharray: none; stroke-linecap: butt; stroke-dashoffset: 0; stroke-linejoin: miter; stroke-miterlimit: 4; is-custom-font: none; font-file-url: none; fill: rgb(207,165,80); fill-rule: evenodd; opacity: 1;" transform=" translate(-4808.7316, -1776.335)" d="m 4768.3 1651.14 c 2.55 4.06 4.79 8.8 6.74 14.02 c -1.32 -3.91 -2.53 -7.88 -3.63 -11.96 c -1.05 -0.76 -2.09 -1.45 -3.11 -2.06 z m 8.44 18.93 c 9.52 29.4 10.96 70.45 7.86 89.77 c -2.74 17.09 -1.6 34.5 0.34 52.25 c 3.4 31.36 10.96 65.59 21.41 89.44 c 10.01 -16.82 20.06 -33.35 29.67 -54.97 c 18.91 -47.24 19.75 -89.25 -13.01 -131.66 c -8.72 -11.29 -23.05 -32.77 -37.26 -48.38 c 35.62 54.94 41.1 106.3 29.55 143.86 c -3.42 -69.24 -24.99 -102.56 -38.56 -140.31" stroke-linecap="round"/>
</g>
		<g transform="matrix(0.1517 0 0 -0.1517 93.4464 24.4612)" id="path264">
<path style="stroke: none; stroke-width: 1; stroke-dasharray: none; stroke-linecap: butt; stroke-dashoffset: 0; stroke-linejoin: miter; stroke-miterlimit: 4; is-custom-font: none; font-file-url: none; fill: rgb(207,165,80); fill-rule: evenodd; opacity: 1;" transform=" translate(-4742.0807, -1585.21)" d="m 4704.58 1698.25 c 7.05 -14.44 12.8 -24.53 20.75 -34.35 c 14.81 -18.33 29.66 -31.11 40.9 -48.43 c 9.04 -13.91 13.38 -28.1 15.03 -42.67 c 1.52 -13.28 1.4 -24.34 -0.61 -34.9 c -3.4 -17.95 -13.43 -40.97 -26.45 -57.55 c 16.32 64.61 3.14 113.96 -20.99 142.98 c 24.45 -67.81 11.14 -103.34 18.2 -146.38 c -1.44 -1.68 -2.91 -3.28 -4.42 -4.78 c 0.01 13.48 -1.07 24.54 -3.27 35.33 c -3.34 16.55 -8.94 30.46 -16.3 44.37 c -5.37 10.15 -9.89 19.3 -13.65 28.31 c -16.47 39.59 -11.91 77.21 -9.19 118.07 v 0" stroke-linecap="round"/>
</g>
		<g transform="matrix(0.1517 0 0 -0.1517 103.3526 23.1668)" id="path266">
<path style="stroke: none; stroke-width: 1; stroke-dasharray: none; stroke-linecap: butt; stroke-dashoffset: 0; stroke-linejoin: miter; stroke-miterlimit: 4; is-custom-font: none; font-file-url: none; fill: rgb(207,165,80); fill-rule: evenodd; opacity: 1;" transform=" translate(-4807.3599, -1593.735)" d="m 4767.92 1503.5 c 12.61 25.98 21.07 57.19 22.54 73.79 c 1.56 17.62 7.09 34.85 13.5 52.26 c 11.33 30.79 27.51 63.69 43.99 85.69 c 5.79 -18.67 11.68 -37.01 15.85 -60.42 c 7.02 -50.68 -2.72 -92.88 -46.22 -129.44 c -15.91 -13.39 -47.3 -44.13 -68.73 -53.15 c 63.52 46.48 88.06 101.14 87.31 145.11 c -20.1 -58.57 -46.15 -85.58 -68.24 -113.84" stroke-linecap="round"/>
</g>
		<g transform="matrix(0.1517 0 0 -0.1517 86.6623 49.3947)" id="path268">
<path style="stroke: none; stroke-width: 1; stroke-dasharray: none; stroke-linecap: butt; stroke-dashoffset: 0; stroke-linejoin: miter; stroke-miterlimit: 4; is-custom-font: none; font-file-url: none; fill: rgb(207,165,80); fill-rule: evenodd; opacity: 1;" transform=" translate(-4697.3818, -1420.925)" d="m 4701.16 1543.11 c 1.78 -16.77 3.87 -28.72 8.33 -41.02 c 8.3 -22.88 18.71 -40.09 23.72 -60.98 c 4.01 -16.78 3.09 -32.58 -0.73 -48.04 c -3.5 -14.12 -7.82 -25.45 -13.89 -35.78 c -11.29 -19.19 -33 -42.46 -54.59 -55.65 c 45.55 60.31 53.3 117.52 40.69 158.15 c -3.79 -81.16 -33.21 -111.96 -44.08 -160.14 l -1.66 -0.91 c 5.12 13.89 8.22 25.59 10.07 37.3 c 2.82 17.93 2.36 33.81 0.05 50.12 c -1.66 11.92 -2.86 22.56 -3.3 32.87 c -1.92 45.26 17.08 82.76 35.39 124.08 v 0" stroke-linecap="round"/>
</g>
		<g transform="matrix(0.1517 0 0 -0.1517 95.6821 51.0794)" id="path270">
<path style="stroke: none; stroke-width: 1; stroke-dasharray: none; stroke-linecap: butt; stroke-dashoffset: 0; stroke-linejoin: miter; stroke-miterlimit: 4; is-custom-font: none; font-file-url: none; fill: rgb(207,165,80); fill-rule: evenodd; opacity: 1;" transform=" translate(-4756.84, -1409.83)" d="m 4658.41 1298.05 c 5.03 2.72 10.2 6.25 15.39 10.36 c -3.36 -3.03 -6.67 -6.22 -9.94 -9.61 c -1.9 -0.35 -3.73 -0.61 -5.45 -0.75 z m 24.89 18.47 c 26.33 24.07 51.5 59.77 60.35 78.66 c 8.31 17.75 20.56 33.96 33.77 50.16 c 23.34 28.63 52.51 58.09 77.85 76.27 c -1.13 -20.8 -2.03 -41.28 -6.64 -66.52 c -12.02 -54.1 -38.07 -94.94 -96.77 -120.74 c -20.45 -8.99 -61.3 -30.4 -87.18 -35.4 c 85 30.22 129.34 82.23 142.3 130.45 c -45.97 -65.74 -87.48 -83.57 -123.68 -112.88" stroke-linecap="round"/>
</g>
		<g transform="matrix(0.1517 0 0 -0.1517 66.7363 73.1584)" id="path272">
<path style="stroke: none; stroke-width: 1; stroke-dasharray: none; stroke-linecap: butt; stroke-dashoffset: 0; stroke-linejoin: miter; stroke-miterlimit: 4; is-custom-font: none; font-file-url: none; fill: rgb(207,165,80); fill-rule: evenodd; opacity: 1;" transform=" translate(-4566.11, -1264.35)" d="m 4638.12 1388.5 c -4.91 -18.42 -7.51 -31.78 -7.74 -46.16 c -0.44 -26.84 3.7 -48.2 0.57 -71.91 c -2.51 -19.05 -9.9 -35.64 -20.25 -51.03 c -9.44 -14.01 -18.63 -24.85 -29.29 -34.11 c -20.21 -17.54 -53.72 -36.43 -82.46 -43.92 c 68.14 43.88 97.89 97.11 101.28 140.37 c -34.35 -77.1 -74.12 -96.72 -102.32 -140.64 c -1.28 -0.32 -2.55 -0.62 -3.81 -0.9 c 11.09 13.33 19.13 24.88 25.84 36.83 c 10.29 18.31 16.21 35.35 20.38 53.43 c 3.05 13.18 6.07 24.88 9.81 36.02 c 16.28 48.81 51.72 83.26 87.99 122.02 v 0" stroke-linecap="round"/>
</g>
		<g transform="matrix(0.1517 0 0 -0.1517 78.4725 78.4288)" id="path274">
<path style="stroke: none; stroke-width: 1; stroke-dasharray: none; stroke-linecap: butt; stroke-dashoffset: 0; stroke-linejoin: miter; stroke-miterlimit: 4; is-custom-font: none; font-file-url: none; fill: rgb(207,165,80); fill-rule: evenodd; opacity: 1;" transform=" translate(-4643.475, -1229.6409)" d="m 4493.25 1139.61 c 2.14 0.48 4.34 1.05 6.58 1.71 c 103.76 4.15 170.97 45.9 202.68 94.64 c -62.94 -47.5 -110.33 -58.93 -154.07 -72.74 c 31.1 17.8 61.12 40.88 75.04 55.22 c 16.04 16.49 35.66 30.24 56.31 43.66 c 36.5 23.73 79.55 46.7 113.91 58.71 c -9.62 -21.83 -18.89 -43.43 -34.02 -69 c -34.75 -54.2 -79.06 -90.17 -152.09 -100.64 c -27.6 -3.95 -86.77 -16.51 -114.34 -11.56 v 0" stroke-linecap="round"/>
</g>
		<g transform="matrix(0.1517 0 0 -0.1517 53.8298 83.6842)" id="path276">
<path style="stroke: none; stroke-width: 1; stroke-dasharray: none; stroke-linecap: butt; stroke-dashoffset: 0; stroke-linejoin: miter; stroke-miterlimit: 4; is-custom-font: none; font-file-url: none; fill: rgb(207,165,80); fill-rule: evenodd; opacity: 1;" transform=" translate(-4481.05, -1195.035)" d="m 4505.91 1243.46 c -13.3 -16.96 -21.93 -29.53 -28.49 -43.84 c -8.85 -19.26 -13.94 -36.4 -21.23 -53.01 v 71.7 c 16.1 8.47 32.78 16.62 49.72 25.15 v 0" stroke-linecap="round"/>
</g>
		<g transform="matrix(0.1517 0 0 -0.1517 64.0043 102.2713)" id="path278">
<path style="stroke: none; stroke-width: 1; stroke-dasharray: none; stroke-linecap: butt; stroke-dashoffset: 0; stroke-linejoin: miter; stroke-miterlimit: 4; is-custom-font: none; font-file-url: none; fill: rgb(207,165,80); fill-rule: evenodd; opacity: 1;" transform=" translate(-4548.12, -1072.565)" d="m 4456.19 1093.57 c 12.35 3.97 25.06 7.47 37.98 10.83 c 48.92 12.75 104.38 22.73 145.88 24.39 c -19.75 -18.92 -39.02 -37.74 -66.21 -58.78 c -37.13 -26.86 -75.04 -45.75 -117.65 -53.67 V 1047 c 20.95 8.69 38.44 20.21 52.21 33.41 c -18.95 -8.39 -36.22 -14.49 -52.21 -19.01 v 32.17" stroke-linecap="round"/>
</g>
		<g transform="matrix(0.1517 0 0 -0.1517 -16.9501 91.6819)" id="path280">
<path style="stroke: none; stroke-width: 1; stroke-dasharray: none; stroke-linecap: butt; stroke-dashoffset: 0; stroke-linejoin: miter; stroke-miterlimit: 4; is-custom-font: none; font-file-url: none; fill: rgb(28,31,86); fill-rule: nonzero; opacity: 1;" transform=" translate(-4014.745, -1142.2746)" d="m 4006.98 1311.1 c -9.39 -3.71 -15.18 -6.78 -27.43 -9.3 v -228.26 l -20.76 15.64 l -22.08 -15.64 v 218.52 c -30.59 -4.06 -45.9 5.69 -45.9 5.69 V 965.422 c 0 0 28.61 -21.922 117.26 13.277 c 88.64 35.201 130.61 -2.648 130.61 -9.625 v 332.406 c 0 6.97 -43.06 44.82 -131.7 9.62" stroke-linecap="round"/>
</g>
		<g transform="matrix(0.1517 0 0 -0.1517 3.0076 97.8487)" id="path282">
<path style="stroke: none; stroke-width: 1; stroke-dasharray: none; stroke-linecap: butt; stroke-dashoffset: 0; stroke-linejoin: miter; stroke-miterlimit: 4; is-custom-font: none; font-file-url: none; fill: rgb(28,31,86); fill-rule: nonzero; opacity: 1;" transform=" translate(-4146.32, -1101.645)" d="M 4417.14 1280.88 V 950.395 h -544.69 v 330.485 h -12.24 V 932.035 c 0 0 162.25 0 243.15 0 c 7.16 0 21.8 -9.625 44 -9.625 c 23.1 0 33.55 9.625 40.65 9.625 c 81.56 0 244.42 0 244.42 0 v 348.845 h -15.29" stroke-linecap="round"/>
</g>
		<g transform="matrix(0.1517 0 0 -0.1517 -4.823 -29.2377)" id="path284">
<path style="stroke: none; stroke-width: 1; stroke-dasharray: none; stroke-linecap: butt; stroke-dashoffset: 0; stroke-linejoin: miter; stroke-miterlimit: 4; is-custom-font: none; font-file-url: none; fill: rgb(28,31,86); fill-rule: nonzero; opacity: 1;" transform=" translate(-4094.8042, -1938.77)" d="m 4254.14 2004.98 l 1.66 -10.71 c -9.79 3 -8.03 1.61 -11.82 10.86 l -3.25 -4.42 c -0.25 -0.28 -0.96 -0.98 -1.4 -1.53 c -19.94 4.18 -25.95 1.83 -9.84 18.46 c 12.19 -0.44 18.58 -6.57 24.65 -12.66 z m -6.24 -15.73 l 5.05 -13.88 c -11.77 -0.38 -9.68 -1.36 -15.48 5.97 l -12.93 -4.35 c -10.2 0.63 -3.3 0.87 -6.27 2.32 c -1.97 8.14 0.57 11.28 9.68 9.41 c 15.56 -3.18 6.8 -2.35 19.95 0.53 z m -260.19 -8.65 c -5.02 -2.56 -6.24 -2.72 -13.44 -1.53 c -9.88 1.65 -10.5 5.56 -11.61 7.01 c 11.97 1.13 17.06 0.98 25.05 -5.48 z m 91.58 334.2 c -2.38 3.04 -3.5 -4.43 -3.49 15.32 l 0.56 108.21 c 1.11 6.07 0.71 2.81 2.93 5.92 c 9.71 -5.44 4.89 -1.93 5.12 -23.1 l -0.86 -22.71 c -0.22 -7.16 -0.09 1.2 0.9 -7.2 c 1.54 -13.18 -1.83 -9.7 -0.85 -18.12 c 1.15 -9.9 2.66 0.2 0.55 -17.55 c -2.37 -20.09 9.8 -32.89 -4.86 -40.77 z m 68.66 -53.52 c 0 13.36 -3.59 35.97 7.66 44.35 c 0.74 -0.61 3.75 -2.02 5.34 -5.77 c 2.18 -5.14 0.91 -1.21 1.11 -6.79 c 0.23 -7.32 -0.67 -3.74 -0.6 -12.35 l 0.93 -31.19 c -8.13 3.38 -4.76 0.75 -10.65 5.88 c -4.36 3.81 -1.73 0.52 -3.79 5.87 z m 21.14 -364.39 v 0 c -4.29 -17.39 -7.26 -27.03 -28.17 -24.28 c -9.06 14.96 -6.95 35.8 -2.81 54.19 c 4.39 19.56 9.18 28.58 19.98 38.9 c 10.98 -13.2 12 -48.68 11 -68.81 z m 2.42 5.4 c -0.12 -0.33 -0.22 -0.68 -0.34 -1.02 c 0.12 0.34 0.22 0.69 0.34 1.02 z m -257.4 -570.69 c 0.95 1.54 1.94 3.76 2.99 6.88 c -4.41 -1.06 -8.79 -2.19 -13.03 -2.66 c 2.13 -0.81 4.13 -1.85 5.92 -3.09 c 1.16 -0.5 2.57 -0.86 4.12 -1.13 z m -3.68 635.66 c 3.39 9.38 -3.69 9.01 1.44 16.15 c 11.53 -7.27 3.18 -20.01 -0.31 -25.76 c 17.42 -23.1 1.36 -5.75 22.97 -21.25 c -12.41 1.31 -13.77 8.53 -20.72 14.02 c -30.56 24.08 -17.77 -6.64 -23.08 29.6 l 8.78 -16.09 z m -37.71 3.47 c -0.42 0.46 -0.99 1.11 -1.19 1.38 l -3.83 5.46 c 33.48 0.05 15.09 -5.13 22.03 -21.24 c 3.86 -8.88 4.5 -1.92 4.65 -15.52 c -0.63 0.25 -1.41 0.65 -1.86 0.83 c -0.4 0.18 -1.29 0.57 -1.79 0.81 l -13.52 4.54 c 2.4 -6.34 5.29 -10.19 5.79 -18.87 l -2.51 3.31 c -7.06 9.14 -17.67 14.81 -25.24 11.72 c -1.83 3.42 -6.9 -6.55 0.04 7.79 c -14.27 -2.85 -9.02 -2.14 -12.82 0.1 l 0.01 7.39 c 6.73 3.58 3.61 2.19 12.77 2.61 c 2.17 -4.79 -5.18 -10.49 19.7 -13.38 c 7.68 11.27 10.72 6.26 8.98 17.36 c -8.77 -4.48 -11.62 -5.87 -20.85 1.28 z m 102.25 -143.75 c -5.75 2.11 -14.34 11.45 -18.66 15.83 c -42.35 42.62 14.77 59.95 -84.49 55.58 c 5.65 11.81 16.97 16.9 32 24.19 c -4.16 0.19 -1.9 -2.46 -5.81 0.92 c -4.74 4.13 0.81 17.87 4.01 22.87 c 8.45 -4.87 9.07 -6.45 12.87 -18.31 l 14.22 2.88 c 3.79 -6.84 -3.45 -0.66 0 -6.66 c 39.42 15.98 33.34 4.73 68.8 3.42 c 9.92 -0.36 13.18 -0.66 20.63 -6.49 c -24.99 -2.76 -29.82 2.04 -50.37 4.13 c -14.87 1.53 -30.46 -2.12 -40.24 -11.57 c 59.75 4.5 77.82 10.65 104.3 -34.43 c 4.4 -7.48 9.02 -15.2 21.96 -13.89 c 12.92 1.32 11.98 7.4 15.88 18.52 c 2.77 7.97 8.56 19.27 12.92 23.99 c 2.37 2.53 6.01 5.59 10.59 6.9 c 19.85 5.69 12.63 -15.12 22.4 -37.98 c 7.83 -18.3 4.79 -16.55 -2.89 -33.49 c -25.98 -0.29 -14.81 11.66 -35.82 -0.39 c 4.36 -2.77 10.68 -8.19 15.18 -11.79 c 5.62 -4.49 7.62 -6.68 11.22 -13.39 c 5.58 -10.41 10.49 -24.69 8.76 -38.3 c -10.18 31.53 -13.42 43.87 -55.14 56.02 c -10.52 3.08 -36.6 -4.72 -71.11 29.76 c -10.38 10.36 -22.26 25.95 -44.8 26.02 c 1.52 -7.24 6.2 -11.15 9.24 -17.24 c 11.47 -22.86 13.93 -29.7 41.63 -37.13 c 7.54 -2.02 14.09 -5.35 20.48 -7.03 c 22.51 -5.84 -8.07 5.95 12.18 0.49 c 9.82 -2.63 33.13 -6.25 39.88 -13.67 c -16.52 0.78 -18.08 4.01 -35.74 -0.18 c -13.73 -3.28 -14.47 -6.21 -26.94 0.6 c -25.33 13.72 -13.05 4.67 -27.14 9.82 z m -102.49 107.25 c 14.79 -13.99 8.41 -4.28 14.85 -9.84 c 3.84 -3.31 1.2 -1.22 2.74 -5.17 c -2.79 0.81 -7.51 1.87 -9.8 2.75 l -7.79 4.6 l -2.45 -7.08 c -10.72 15.22 1.27 -3.91 -15.7 6.93 c 3.42 8.37 2.82 4.15 7.9 5.36 z m 129.63 -93.4 c -24.75 1.98 -39.2 19.7 -46.44 38.86 c 13.17 -2.2 17.13 -14.12 23.88 -21.02 c 5.97 -6.12 14.65 -11.86 22.56 -17.84 z m -181.4 2.08 l -0.54 -5.85 c 15.67 1.33 10.14 0.39 14.21 -3.07 c -11.64 -2.51 -19.95 -7.38 -31.6 -10.03 c 1.45 12.99 6.99 16.22 17.93 18.95 z m 121.63 5.59 l 8.06 -16.17 l -11.17 -1.22 z m 11.73 -50.12 c -5.19 7 -13.64 2.4 -23.91 0.87 l 9.23 6.18 c 6.31 3.81 3.87 -1 6.41 5.27 c -8.23 3.78 -2.47 0.35 -8.73 -0.55 l -7.82 0.4 c 19.82 19.2 47.32 -10.86 80.5 -4.19 c 15.25 3.05 19.82 8.59 39.87 6.82 c 11.49 -1.02 27 -5.54 33.06 -15.57 l -22.25 7.25 c 37.36 -19.5 21.46 -45.77 -16.13 -49.48 c -25.11 -2.47 -28.22 -0.04 -46.88 8.24 c -24.17 10.76 -35.81 -9.69 -38.77 -10.36 c -19.21 1.49 -41.31 16.95 -27.13 33.25 c 3.37 0.05 0.01 -0.79 7.44 -6.91 c 9.72 1.24 17.66 0.01 23.04 6.47 c -9.05 5.59 -3.56 2.47 -13.24 2.94 c -10.43 0.47 -8.1 -1.6 -12.97 2 c 11.3 5.56 10.97 -0.6 18.28 7.37 z m -55.29 -14.57 l 23.36 -1.04 l -0.11 -16.66 c -6.89 -2.69 -13.48 -0.59 -22.76 0.03 z M 4088.86 1727 c 1.78 33.72 8 23.18 11.99 37.49 c 2.74 9.76 -1.48 4.87 4.08 12.73 c 7.74 -10.79 3.45 -1.19 -2.46 -32.11 c -2.46 -12.9 -4.78 -4.94 -11.73 -24.77 c -0.14 -0.39 -0.65 -2.07 -0.76 -1.72 c -0.1 0.34 -0.51 -1.1 -1.21 -2.33 l -9.06 5.77 z m -248.31 -39.33 c -14.5 -1.5 -24.35 8.17 -38.15 13.38 l 0.86 13.58 c 7.83 -7.54 5.61 -10.16 15.62 -16.6 c 10.35 -6.67 13.99 -4.15 21.67 -10.36 z m -28.94 -31.33 c 7.5 -15.7 4.57 -45.2 6.92 -64.79 c 2.72 -22.44 7.51 -40.54 11.74 -61.39 c -9.53 3.43 -23.69 10.02 -26.16 19.56 c 4.07 3.72 -0.59 5.66 10.84 1.16 c 0.8 26.53 -8.74 41.65 -3.34 105.46 z m 280.76 -250.79 c 6.84 22.34 46.55 14.01 33 48.74 l 27.22 11.48 c -29.4 -53.03 -27.84 -47.48 -60.22 -60.22 z m -232.96 -0.63 c 1.01 -0.22 1.81 -0.16 2.02 -1.08 l 4.37 -6.14 c 1.66 -3.18 2.39 -5.53 3.81 -8.44 c 25.09 -51.09 9.31 -23.88 37.27 -38.42 l -22.94 -4.61 z m 195.19 93.27 c 18.85 -1.49 46.47 10.67 64.43 16.76 l 60.15 18.57 c -11.93 -0.19 -41.46 -7.85 -58.67 -10.13 c -26.73 -3.55 -37.29 -1.98 -62.49 0.86 c 2.8 -18.43 1.91 -12.59 -3.42 -26.06 z m 33.67 69.44 c 3.72 -23.94 46.26 -31.3 74.03 -24.83 c 27.29 6.34 51.11 24.35 65.18 38.49 c 37.43 37.57 46.71 92.91 45.54 160.4 c -11.04 -18.19 -14.01 -74.78 -35.88 -120.89 c -17.02 -35.92 -43.33 -57.25 -88.9 -68.23 c -2.83 4.85 8.19 4.07 -5.34 11.32 c 21.3 3.92 41.53 14.23 55.92 23.9 c 30.07 20.24 30.82 24.71 33.79 46.55 c -10.73 -4.95 -6.86 -5.38 -15.15 -13.45 c -60.1 -58.61 -89.18 -45.44 -129.19 -53.26 z m -285.1 208.24 l 7.46 0.25 c 5.96 5.78 20.61 8.74 29.43 10.28 c 12.42 2.16 26.14 2.94 39.88 2.35 l -4.23 4.79 c -8.24 -0.4 -16.03 -0.66 -23.38 -1.54 c -8.23 -1.02 -13.6 -3.89 -18.4 -0.99 c 12.29 7.8 12.3 -3.51 12.86 11.41 c -16.21 -5.35 -28.2 -3.9 -31.3 -11.41 c 5.94 -2.15 0.28 -0.13 6.3 -0.81 z m 49.68 -75.96 c -13.23 16.89 -16.32 40.28 -43.06 42.07 c 5.01 -18.41 26.86 -33.94 43.06 -42.07 z m 247.59 -111.86 c -15.7 -0.36 -47.12 5.81 -55.98 4.51 c -25.78 -3.74 8.22 -16.7 17.9 -18.17 c 48.3 -7.2 63.37 1.19 91.77 18.71 c 28.42 17.51 34.69 11.38 63.16 47.65 c 13.28 16.98 33.58 47.55 41.57 69.09 c -5.91 -4.32 -52.75 -58.68 -71.53 -73.61 c -36.92 -29.29 -36 -17.07 -53.05 -28.33 l -2.27 -1.68 c -8.61 -4.18 -32.65 0.08 -47.05 -5.2 c 3.69 -7.29 0.47 -1.94 6.98 -6.53 c 3.49 -2.46 0.85 -0.38 5.09 -3.49 c 0.41 -0.34 1.38 -1.95 1.72 -1.45 c 0.29 0.51 1.18 -0.95 1.69 -1.5 z m -58.53 663.63 c 9.89 -0.3 10.59 -0.39 18.39 -5.18 c 0.25 -0.33 8.24 -39.1 -18.31 -29.55 z m 98.84 -160.1 c -10.88 -3.06 -28.05 -7.86 -39.91 -12.24 l 1.25 16.03 c 0.69 14.21 2.2 19.24 8.45 31.35 c 6.43 12.44 3.19 35.73 19.41 79.14 c 3.93 10.51 2.19 11.02 9.77 10.8 l -1.3 -34.89 c 3.22 -33.65 -0.07 -57.96 2.33 -90.19 z m -322.5 -273.47 c 6.41 -3.65 -1.27 -1.5 8.4 -1.79 c 8.43 -0.27 23.07 1.79 22.17 12.55 c -5.57 -7.92 -18.28 -2.5 -30.57 -10.76 z m 326.63 255.38 c -0.17 0.29 -0.31 0.6 -0.47 0.9 c -0.31 -0.82 0.12 -1.46 0.47 -0.9 z m -0.69 9.97 c 0.74 -3.55 1.2 -6.05 1.48 -7.76 c 0.72 0.37 1.79 0.64 3.33 0.6 l -3.81 0.1 c -0.04 1.56 -0.31 3.83 -1 7.06 z m 94.61 -719.48 l 5.87 43.08 l -11.31 -42.4 z m 223.66 -56.81 c 30.84 37.52 91.79 36.37 78.88 84.07 c -11.08 40.92 -80.24 63.46 -117.55 70.54 c 7.32 12.66 7.41 7.17 10.12 26.27 c 2.13 14.9 7.42 15.17 -1.67 27.92 c -10.9 15.29 -30.19 75.34 -50.18 107.51 c -9.03 14.54 -24.03 14.6 -40.72 18.43 c -18.64 4.28 -12.97 9.16 -5.41 17.66 c 8.05 9.02 3.17 3.33 6.52 13.95 c 5.03 16 7.16 15.19 3.16 34.22 l -16.07 4.48 l -2.01 16.36 c 8.38 -3.62 5.17 -4.19 10.26 -12.12 l 1.04 37.86 l -7.74 -13.25 l -4.89 8.91 c -1.23 5.87 -1.08 15.07 2.74 20.13 l 4.76 3.03 c 0.25 0.1 1.14 0.29 1.35 0.36 c 0.23 0.05 0.97 0.05 1.4 0.27 l -0.65 13.45 l -12.64 5.28 l 2.47 15.79 c 7.76 -3.18 4.82 -3.47 9.25 -10.7 c -0.94 17.36 -6.41 34.57 -15.34 46.52 l -14.5 -3.22 l -5.24 11.68 c 1.01 -7.32 3.14 -5.36 1.45 -10.89 c -1.27 -4.12 -4 4.27 -3.96 -12.21 c -3.55 12.89 -6.91 11.09 -10.14 24.64 c -2.74 11.53 -4.6 14.77 -12.03 21.92 c -11.54 11.06 -27.63 19.15 -48.37 21.95 c 15.81 -43.14 24.19 -75.34 7.16 -123.71 c -9.77 -27.79 -24.57 -47.48 -46.37 -61.97 c -4.27 -2.86 -18.69 -9.73 -21.71 -13.99 c 63.36 -8.99 84.28 70.65 87.87 117.9 l 5.21 -13.05 c 2.65 -16.03 -1.42 -33.18 -5.43 -48.46 c -4.86 -18.49 -17.83 -28.75 -28.98 -42.47 c -26.64 -32.72 -43.99 -41.02 -100.46 -42.01 c 22.53 -16.93 58.25 -9.8 82.44 3.42 c 12.04 6.59 11.92 8.91 20.19 16.76 c 33.23 31.57 46.93 78.31 57.74 89.38 c -1.8 -118.26 -14.75 -237.74 -23.06 -355.64 c -1.12 -15.75 -3.36 -39.79 -4.83 -63.38 c 7.06 -1.57 14.09 -3.49 20.95 -5.66 c -1.66 40.54 -3.63 80.73 -1.5 123.21 c 2.96 59.19 7.01 118.09 9.08 176.77 c 7.95 -88.94 -5.05 -205.31 0.94 -302.83 c 3.64 -1.28 7.23 -2.62 10.78 -4.03 c 4.09 -1.63 10.44 -3.96 17.91 -6.39 c -12.26 93.1 -18.37 187.16 -19 281.77 c -0.21 32.75 -4.67 84.24 -0.88 114.53 l 11.6 -15.24 c 0.31 21.06 0.29 42.13 0.35 63.18 c 0.11 30.36 -5.3 51.17 8.91 55.32 c 3.51 -7.32 2.31 -19.8 2.28 -28.23 c -0.14 -28.67 3.29 -60.56 -0.8 -88.64 l -11.68 -4.91 c 10.62 -33.04 13.75 -63.95 14.21 -100.95 c 0.51 -39.84 4.64 -75.78 6.26 -114.16 c 11.82 0.08 14.47 -3.9 20.89 -8.57 c 2.63 5.78 2.11 8.23 -0.68 13.89 c 32.16 -1.48 31.3 -29.88 -18.89 -9.38 c 0.81 -15.85 1.29 -10.43 12.37 -14.74 c -3.92 -10.33 -6.03 -5.54 -9.17 -15.35 l 13.82 5.47 c -4.7 -4.75 -6.07 -6.8 -13.54 -8.56 c 2.77 -29.3 11.91 -92.84 20.98 -135.07 c 10.53 -1.82 20.07 -2.33 26.27 -0.32 c 11.79 7.28 25.87 7.94 38.56 1.65 c 6.22 -3.09 11.29 -7.45 15.02 -12.7 h 0.87 c 11.95 0 22.69 -5.29 30.03 -13.65 z m -318.87 749.89 l -25.13 -3.57 c 0.01 -17.11 -2.89 -4.35 6.18 -12.81 c 7.2 -6.73 -0.3 -5.04 11.51 -8.12 c 2.76 5.07 3.53 6.39 3.19 13.86 c 3.85 -8.15 2.38 -5.33 8.43 -6.74 l -4.18 17.38 c 10.59 -8.8 9.1 -4.66 12.02 -13.52 c 31.6 8.32 36.02 5.05 52.91 -12.99 c -27.48 8.88 -13.77 10.08 -50.44 9 l -1.16 -3.35 c -0.13 -0.36 -0.42 -1.27 -0.61 -1.74 c -6.82 -17.82 -6.91 -11.51 -4.3 -32.99 c 3.02 -24.95 -0.85 -10.54 5.37 -28.68 c 1.75 -5.18 4.47 0.98 0.71 -7.09 c -18.12 -0.74 -25.93 -3.22 -47.04 -1.62 c -3.94 -21.06 -15.6 -36.41 -36.12 -40.7 c 6.76 31.63 5.83 19.89 -1.27 49.16 c -5.46 22.53 3.32 31.4 -24.35 33.28 c 5.51 -16.43 7.73 -7.87 19.07 -16.43 c 6.14 -34.5 -7.43 -56.48 -36.59 -62.69 c -6.48 -1.39 -70.02 12.57 -84.95 15.16 l -0.33 6.69 c -13.51 6.75 -24.78 46.44 -34.42 61.78 c -6.25 9.9 -13.1 14.78 -27.21 19.66 c -27.13 9.37 -18.95 14.09 -29.63 19.11 c -3.94 -14.25 -0.18 -13.7 -7.29 -29 l 9.74 15.04 c 8.7 -21.4 32.03 -12.85 24 -44.4 l -40.15 -10.13 c 2.33 10.16 -0.94 11.2 -1.81 18.8 l -1.32 12.93 c -2.97 -6.75 -7.54 -11.94 -8.58 -20.45 c -0.7 -5.74 0.26 -7.24 0.25 -12.05 c -0.02 -10.91 -1.23 -3.26 -1.73 -14.02 c 13.64 -11.27 3.71 4.71 15.84 -23.27 c 0.24 -0.55 0.5 -1.2 0.73 -1.76 c 9.48 -22.39 6.95 -6.38 6.87 -22.5 c -0.06 -10.43 1.53 -11.57 7.74 -16.89 c -3.54 -7.6 1.42 -2.04 -6.91 -6.71 c 11.7 -0.11 8.76 -0.06 11.99 -2.36 c -8.52 -12.54 -10.42 -24.6 -33.66 -19.78 c 0.28 8.38 -0.66 5.03 3.72 10.36 c 0.4 0.02 0.94 -0.14 1.05 -0.6 c 0.12 -0.48 0.88 -0.54 1.04 -0.67 c 1.09 -0.68 6.31 -9.27 11.94 -0.53 c 0.22 0.32 0.54 1.09 0.64 1.49 c 0.13 0.35 0.2 1.19 0.24 1.6 c 0.88 8.55 -2.45 1.5 -1.93 9.35 c 0 0.05 0.28 0.37 0.2 0.57 c -10.09 -3.94 -9.77 -7.1 -17.43 -11.88 c -9.27 -5.78 -12.52 -5.48 -19.58 -12.43 l 14.5 8.72 c 2.7 -4.53 3.51 -16.74 26.08 -9.82 c 4.87 1.49 9.18 3.96 12.28 7.36 c 9.52 10.5 -0.97 5.39 8.81 11.7 c 15.41 6.31 40.61 0.8 51.29 -8.14 c -18.04 -7.83 -39.99 -16.44 -61.29 -19.41 c -30.38 -4.26 -55.76 -18.04 -60.18 -16.03 c -7.53 -34.1 -17.01 -40.72 -28.01 -63.3 c 5.14 -5.19 10.74 -14.02 12.2 -21.89 c -5.15 -2.87 -5.42 -2.17 -10.07 -5.07 c -3.49 1.83 -1.22 0.48 -4.55 2.97 l -13.17 9.06 c -10.74 4.5 -18.17 1.66 -26.33 5.49 c -3 -6.55 -6.5 -10.69 -10.68 -14.59 l 21.41 -9.96 c 4.59 0.28 -3.03 3.45 12.66 -4 c -5.46 12.81 -7.3 9.62 -14.14 18.05 c 15.03 -4.34 26.55 -17.55 32.63 -29.53 l -19.61 4.51 c 3.65 -6.88 5.52 -6.67 10.51 -14.71 c -33.4 -1.58 -19.05 -3.74 -46.28 6.75 l 4.34 -7.33 c 4.06 -13.86 -28.65 -36.8 -41.42 -39.52 l 4.73 -22.58 c -6.22 3.44 -8.19 8.23 -14.26 12.64 c 2.54 -18.5 5.07 -21.2 0.34 -24.91 c -17.61 -13.91 2.9 -44.14 -9.43 -60.61 c -28.51 24.43 5.31 90.64 14.99 114.04 c -13.55 -14.49 -19.04 -29.71 -25.79 -53.15 c -18.55 -64.37 12.07 -54.34 16.72 -90.6 c 4.19 -32.91 11.9 -66.63 24.11 -96.82 c 11.2 -27.67 25.41 -52.44 43.83 -74.41 c 14.85 -17.72 45.07 -42.57 66.2 -54.42 c 9.16 -5.17 16.43 -9.14 25.98 -13.44 l 7.97 -3.35 c 5.94 4.19 13.07 6.81 20.77 7.24 c 1.78 2.55 3.89 4.86 6.3 6.95 c -16.33 15.63 -39.92 43.72 -47.25 53.39 c -38.93 51.17 -70.71 112.54 -97 173.77 c -13.85 32.25 -23.24 70.71 -51.15 85.01 c 10.75 8.08 16.58 -1.11 23.62 -8.73 c 7.24 23.54 -5.63 13.66 14.83 29.57 l 50.4 40.68 c 16.25 13.46 11.85 8.44 31.47 16.07 c -14.7 -87.43 -3.57 -140.08 22.01 -214.37 c 7.07 -20.52 22.67 -73.88 35.43 -90.08 c 6.4 -8.13 28.97 -52.92 37.82 -75.65 c 2.04 0.37 4.06 0.57 6.06 0.64 c 6.11 2.45 12.77 1.19 20.36 3.56 c 13.09 4.1 5.04 8.67 15.75 4.06 c 7.18 -5.99 3.15 -4.54 5.8 -13.85 c 6.47 0.72 12.61 -0.02 18.31 -2.18 c 5.41 5.59 12.53 9.62 20.72 11.32 c 7.69 1.58 13.53 4.43 20.77 7.31 c 8.2 3.24 16.63 6.19 25.23 8.67 c 8.7 18.81 19.06 10.81 31.92 6.97 c 5.1 0.73 10.23 1.27 15.35 1.6 c -8.15 12.84 -24.97 8.56 -43.45 10.24 c 6.17 5.35 19.69 15.85 26.75 17.21 l -32.84 -8.71 c -9.73 13.96 -33.16 44.37 -39.15 62.04 c 27.8 -5.04 24.88 -61.03 56.78 -44.75 c 14.87 13.97 -36.14 58.71 -54.26 67.02 l 30.96 21.62 c 16.46 -30.68 37.9 -66.79 50.09 -100.45 c 3.3 -9.11 2.31 -9.78 7.44 -17.16 c 1.71 -2.49 3.06 -4.73 4.12 -6.77 c 15.26 0.43 30.52 -1.09 45.35 -5.11 c 9.02 -2.45 18.96 -6.27 28.2 -11.49 c 2.7 1.53 5.47 2.94 8.26 4.24 c 7.65 14.21 28.33 49.43 30.4 60.24 c 2.67 13.87 1.13 27.92 6.97 39.73 c 3.87 7.84 13.87 24.09 18.99 29.85 l -0.87 -20.9 c 14.8 7.72 17.75 24.83 24.67 39.47 c 7.01 14.85 14.24 27.96 19.73 41.88 c -10.1 -9.1 -17.92 -21.78 -27.9 -33.77 c -19.36 -23.27 -36.17 -49.32 -53.77 -74.23 c -23.34 -33.04 -6.7 -31.03 -15.6 -51.83 c -10.6 0.69 -10.35 1.56 -16.89 8.31 c 2.57 21.1 29.07 70.13 43.88 83.78 c 9.39 8.61 25.65 20.43 33.15 30.95 c 3.69 5.17 18.73 38.54 20.18 44.21 c -19.03 -18.76 -28.52 -38.18 -55.34 -48.46 c -11.74 -4.49 -24.88 -10.53 -33.47 -18.24 c -3.82 -3.42 -20.75 -25.48 -23.62 -29.91 c -21.09 7.42 -15.87 -6.87 -26.78 -0.77 c 7.51 7.23 17.57 10.5 25.74 18.4 c 26.87 25.98 13.04 18.36 48.44 40.17 c 9.51 5.85 17.36 10.64 25.56 16.63 c -9.18 -2.19 -57.03 -20.76 -65.79 -25.63 c -11.16 -6.16 -12.78 -14.39 -26.16 -20.68 c -22.58 -10.64 -13.53 -2.65 -33.63 1.74 l -8.33 -12.98 l -18.01 6.36 c 4.01 58.11 5.07 40.92 -13.99 54.54 c 2.41 1.08 3.64 1.1 6.57 2.98 c 5.7 3.62 2.78 1.25 5.44 4.64 c -10.7 8.27 -3.63 8.65 -22.26 8.52 c -34.12 -0.21 -24.96 11.23 -50.07 7.2 c -8.58 -1.38 -20.74 -2.61 -26.42 -6.16 l 70.39 -18.27 c -21.55 -4.21 -34 -1.59 -53.72 1.11 c 5.77 -12.5 22.97 -35.68 37.43 -28.94 l 10.38 4.16 c 3.16 0.85 2.39 0.23 6.12 1.49 c 3.89 1.34 2.35 1.2 4.99 2.31 c 16.72 6.95 11.4 -19.36 -7.9 -16.43 c -11.62 1.75 1.51 6.39 -24.93 -10.01 c -8.12 -5.03 -50.56 -30.61 -59.1 -9.6 c 8.66 5.68 12.45 2.27 23.94 1.09 c -2.4 5.57 -1.87 4.74 -6.36 8.43 l 16.64 4.52 c -33.9 8.3 -26.68 11.59 -35.99 42.21 c -37.94 11.91 -28.88 7.46 -40.22 46.01 c -6.92 23.47 -11.1 47.69 -25.56 63.55 c 2.54 -24.21 9.07 -50.11 12.99 -73.6 c -18.93 14.97 -25.24 73.25 -51.01 99.34 c 2.14 -20.41 10.01 -13.76 16.41 -33.14 c 8.35 -25.28 15.11 -52.11 30.05 -73.3 c 6.79 -9.66 15.92 -24.59 13.54 -39.15 c -10.53 9.29 -18.37 31.44 -28.92 43.28 c 0.9 -12.03 4 -22.87 8.47 -33.19 c 8.11 -18.71 8.4 -13.13 21.05 -23.25 c 8.19 -6.55 5.91 -18.35 13.47 -28.46 c 9.67 -12.94 14.58 -1.57 25.34 -18.44 l -24.71 2.35 c -6.36 15.98 -20.71 21.57 -31.05 34.52 c 2.85 10.45 2.38 3.36 7.39 12.35 c -17.48 3.7 -15.4 2.63 -19.57 19.65 l -11.65 3.33 c -4.31 25.28 -9.29 49.72 -14.12 74.78 c -4.06 21.06 -13.77 58.59 -12.98 78.25 c 4.99 -3.59 1.01 -0.01 4.99 -4.33 c 2.87 -3.11 2.96 -3.95 4.55 -5.99 c 4.35 -5.64 1.43 -4.54 9.31 -7.72 c 14.61 -5.92 11.78 1.2 23.2 -11.37 c 8.46 -9.32 7.76 -10.46 23.03 -10.65 c 9.78 -0.12 25.55 -1.15 31.91 1.89 c -10.46 6.09 -24.95 7.39 -36.26 12.75 c -19.03 9.01 -16.28 12.61 -22.54 26.18 c -3.19 6.93 -19.49 17.27 -27.21 22.53 c -14.86 10.15 -21.82 5.81 -22.59 27.66 c -6.13 -9.99 -2.24 -12.45 -12.47 -20.06 c 4.1 22.51 13.05 20.58 10.47 41.84 c -0.37 2.98 -0.88 6.69 -0.55 9.57 c 0.79 6.43 -0.73 3.28 2.71 7.19 c -4.67 3.31 -4.6 -4.24 -1.67 21.2 c 0.84 7.39 -1.1 14.15 2.02 24.11 c 15.37 15.67 53.46 16.67 81.49 13.99 l 1.17 14.1 c -7.64 -12.66 -8.74 -8.79 -47.44 -12.9 c 9.62 13.07 9.89 -2.2 12.79 12.99 c -9.53 -3.1 -20.1 -7.64 -30.82 -6.45 c 12.2 9.26 34.44 10.54 51.86 11.27 c 24.36 1.04 23.71 13.44 45.74 15.24 c -18.02 -26.58 -17.94 -44.57 -20.53 -83.53 c -1.74 -26.31 -1.22 -22.97 -10.51 -23.51 c -4.37 5.76 -2.55 7.35 -2.72 16 c -15.21 0.54 -54.28 5 -61 -9.54 c 6.79 -10.2 5.13 0.27 13.31 -4.92 c -6.8 -4.68 -13.96 -4.23 -19.94 -1.35 c -2.4 9.5 1.65 11.79 6.88 15.81 l -13.17 -2.26 c -0.35 -0.41 -1.1 -0.33 -1.26 -1.05 c -0.15 -0.73 -1.01 -0.86 -1.21 -1.13 l -3.91 -9.64 c -0.16 -3.95 1.62 -12.99 2.03 -17.86 c 19.86 3.59 31.41 9.29 54.97 11.3 c 12.43 1.08 21.38 -0.35 31.74 -0.24 c 16.64 0.16 -2.92 4.61 27.17 2.35 l -28.47 -34.92 c 9.94 3.65 16.89 11.56 27.2 16.41 c -7.3 -15.61 -10.79 -15.5 -22.5 -25.95 l -26.36 -23.92 c -6.25 2.63 -10.3 5.39 -17.18 8.44 l 27.17 -18.39 c -0.42 0.37 -1.33 1.11 -1.33 1.41 l 1.19 6.39 l 2.56 5.23 c 5.08 6.02 31.04 26.2 38.42 29.02 c 0.78 -8.27 -4.81 -9.73 -20.31 -20.56 l 21.2 7.63 l 17.61 -17.01 l -17.05 0.12 c 21.47 -11.95 29.75 -9.71 39.14 -35.03 c -8.31 2.66 -16.5 6.46 -24.29 1.8 c 12.68 -9.3 22.23 -9.15 25.68 -26.26 c -11.94 5.51 -20.8 11.56 -37.27 10.11 c 3.41 -4.01 11.39 -11.84 16.11 -15.86 c -0.71 -39.51 -10.27 -20.09 -1.71 -70.22 c 26.79 1.89 33.82 8.43 57.61 -1.71 c 1.6 -0.68 49.05 -14.06 46.66 11.96 l -43.75 0.57 l -60.64 171.91 c 10.33 9.7 14.05 6.93 31.29 7.36 c 15.77 0.37 22.75 -3.62 22.11 -19.79 l -11.53 -3.42 l 12.91 -47.26 c 15.58 11.09 17.85 9.09 31.12 0.58 c 9.48 -6.1 5.16 0.69 10.34 -8.15 l -3.23 -0.53 c -3.92 0.35 -0.21 -0.95 -4.78 0.86 c -3.52 1.41 -5.86 4.28 -9.44 5.82 c -11.34 4.97 -14.78 2.35 -20.35 -4.3 c -2.24 -3.37 16.55 -61.27 25 -69.07 c 7.93 25.33 24.8 40.63 49.16 49.42 c -2.45 1.89 -1.11 1.35 -5.22 3.02 l -20.57 -1.08 c 0.02 -8.2 1.27 1.48 0.63 -3.36 c -9.74 -4.57 -9.64 -5.69 -17.83 -11.35 c -2.35 11.02 -5.46 9.99 -13.22 16.67 l -7.15 7.4 c 16.11 -2.43 7.48 -5 21.75 -11.18 c 6.17 8.2 12.38 12.5 24.26 17.22 c 16.16 6.41 21.11 5.66 31.47 -4.72 c -2.62 17.25 -10.36 16.09 -27.79 18.65 c 1.7 2.05 -2.32 4.37 8.39 5.81 c 9.04 1.24 2.35 -0.93 10.83 -3.62 c 9.72 -3.09 13.37 0.58 21 3.3 l 6.46 -9.84 c 11.14 4.14 14.63 9.92 28.84 14.68 c 11.83 3.98 6.58 -0.46 12.96 9.16 c 4.97 7.52 2.52 5.51 9.69 12.53 c 19.5 19.11 33.96 9.2 47.29 38.86 c 18.12 40.31 20.67 83.17 -5.62 118.61 l -9.09 14.77 c 11.31 -1.74 10.1 -0.99 13.47 -10.91 l 3.2 10.68 c 2.8 -4.22 18.81 -29.75 22.71 -34.39 c 6.01 37.55 -35.61 62.66 -44.8 64.69 l 8.94 -13.95 c -14.33 0.18 -14.33 7.34 -20.71 14.85 l -2.85 12.19 c 10.6 5.46 38.01 9.16 51.71 -7.89 c 8.03 9.54 -0.44 1.67 2.87 15.61 l -16.93 2.91 c -5.69 1.33 -7.35 1.07 -5.74 7.76 c 14.18 5.27 3.22 -5.28 11.99 0.44 c 8.87 5.74 -4.89 -1.09 3.28 3.08 c 0.85 -5.34 -2.9 -9.11 22.4 -13.68 c -5.77 15.2 -14.21 3.58 -16.44 16.43 l 28.08 1.53 c -1.28 -7.47 -3.85 -7.83 -7.67 -14.53 c 7.59 -3.25 23.08 -21.43 18.44 -30.27 c -19.27 -0.17 6.16 1.24 -20.38 15.7 l -9.96 6.47 c 0.06 -20.29 0.38 -6.29 23.25 -25.23 c 4.45 -3.7 7.29 -4.33 13.28 -6.91 c -1.35 23.34 -12.21 35.49 -9.87 53.98 c 0.82 6.6 0.87 7.55 0.81 13.68 l 0.08 7.17 c 0.09 0.45 0.35 1.1 0.45 1.54 c 2.36 9.93 2.46 13.52 -5 25.96 c -5.87 9.69 -22.3 20.66 -38.14 13.65 c -0.23 16.9 7.89 11.68 13.29 26.08 c 1.92 5.09 2.07 7.17 3.14 12.06 c -65.29 7.62 -37.38 1.33 -61.94 -2.61 c -7.63 -1.24 -6.63 0.17 -8.11 1.13 l 20.44 7.64 c -4.41 2.59 -5.96 2.8 -8.02 8.76 l 0.86 87.45 v 0 c 9.71 5.87 2.93 1.34 5.17 5.69 l 6.79 0.57 c 10.33 -10.82 16.2 -20.57 36.28 -21.42 l -17.6 20.2 c -10.9 9.38 -6.02 14.55 -16.17 23.45 l -6.67 1.76 c -7.62 0.7 -0.56 -3.26 -6.93 0.49 c 0.54 12.44 -1.1 4.8 4.43 7.54 c 14.2 -3.12 13.73 -9.96 23.89 -9.67 c 13.27 0.4 6.11 9.4 23.31 11.25 l 22.11 12.59 l 7.46 8.45 c -14.14 -1.17 -19.16 -0.31 -31.38 0.7 c -22.71 1.87 -12.7 -2.76 -26.4 -5.49 c -8.18 13.52 -7.57 14.49 -24.94 19.24 l 1.08 70.85 c 0.11 39.29 20.22 -21.26 -7.12 65.03 c -5.97 -7.64 -6.67 -19.76 -10.89 -27.99 l -6.88 17.81 c -11.06 -9.85 0.29 -31.64 -26.92 -28.13 l 2.7 9.39 l -26.01 43.03 c -0.82 11.4 0.03 23.5 -0.15 34.4 c -0.48 31.51 0.84 19.77 4.88 29.63 c 2.06 4.93 -9.14 42.29 -14.09 48.36 c -8.22 -13.5 -6.93 -34.89 -15.19 -46.87 l 0.59 57.59 c 0.79 15.09 -0.33 1.73 6.88 13.79 c -2.66 8.64 -5.19 16.29 -7.84 24.98 c -3.21 10.57 -2.88 16.89 -10.05 24.01 c -2.73 -11.38 -12.95 -42.95 -10.95 -51.94 c 0.18 -0.85 1.12 -1.06 1.36 -1.34 l 4.42 -120.38 c -0.22 -28.3 4.46 -92.87 -7.43 -111.75 c -8.06 -12.76 -12.9 -2.6 -14.54 -27.62 l -6.24 -1.25 l -8.73 0.21 l -0.59 17.2 l 9.57 -1.97 c -0.83 8.16 0.4 16.3 -0.22 18.68 c -10.61 4.81 -8.35 0.5 -9.51 10.52 c 8.4 0.57 -0.48 2.13 10.94 -1.11 c -7.78 31.46 8.88 15.11 1.99 36.38 c -3.62 11.2 -6.59 29.29 -13.39 38.02 l -14.18 -47.95 c 0.13 -11.21 4.86 5.97 6.14 -25.02 l -0.17 -47.93 c -0.27 -6.11 1.2 -6.43 0.79 -16.15 c -0.17 -3.78 -0.79 -5.49 -0.82 -7.88 l 1.54 -29.36 c -0.1 -55.07 -0.05 -110.91 1.05 -165.93 c -6.47 -1.24 -12.53 -2.65 -18.26 -4.83 l -15.6 -9.22 c -21.56 -11.84 -12.12 -14.03 -24.16 -36.66 c -2.29 -4.29 -3.67 -11.54 -5.37 -17.08 l -7.13 -17.46 c 1.68 4.35 2.45 6.08 3.95 10.28 c 2.89 -4.04 4.05 -2.2 -2.09 -15.24 c 57.41 2.34 52.98 -9.18 86.6 -9.91 c 10.85 11.28 13.8 17.67 12.96 37.93 l -6.16 -15.13 c -6.97 -15.13 -25.25 -12.98 -47.92 -10.16 c 5.1 13.7 23.84 11.14 12.86 32.7 l 12.04 5.91 c -0.7 1.07 -1.41 2.38 -1.62 1.96 l -23.68 20.75 l 2.34 -17.36 c -8.88 3.35 -20.1 7.74 -28.11 12.46 c 4.93 10.61 8.18 9.92 15.49 17.01 c 8.75 3.48 12.59 6.9 22.88 9.78 c 9.4 2.63 16.88 3.06 26.47 5.01 l 14.05 4.86 c -0.37 -0.21 -1.59 0.87 -2.03 0.15 l -4.33 1.23 c -10.51 2.3 -8.02 -20.85 -8.03 35.85 l 0.45 103.88 l 16.42 -5.96 c -4.65 7.33 -3.9 3.39 -7.02 12.87 c 10.36 10.12 8.2 6.03 18.33 12.13 c 1.56 -25.41 2.94 -124.43 -1.38 -145.34 c 8.45 3.46 6.84 4 13.51 9.28 c 25.89 3.6 32.64 15.55 52.46 18.58 c 7.93 1.2 4.16 1.48 8.16 -0.97 l -24.16 -24.3 c -21.41 -18.03 -25.2 16.75 -50.1 -13.89 c -10.3 -12.64 -29.67 -17.27 -27.03 -50.69 l 26.81 33.67 c 12.93 13.68 23.95 9.79 47.03 11.22 c -9.58 -13.2 -19.26 1.05 -33.34 -14.15 c 7.45 0.6 13.63 3.11 20.43 -0.53 c -6.72 -10.85 -13.15 -2.68 -14.55 -14.76 c -0.17 -1.54 3.93 -21.26 4.5 -26.81 c 8.78 24.9 3.37 36.21 31.07 43.86 c 11.66 -17.28 3.03 -39.7 -9.26 -47.13 l 11.71 0.45 c 6.67 -14.95 -6.09 -9.85 9.85 -10.91 c 5.86 8.85 5.42 45.18 -6.25 58.94 c -5.5 6.49 -13.19 9.1 -8.6 20.98 c 5 12.99 10.02 7.13 17.45 18.72 l 2.92 -0.74 c 1.33 -6.96 -2.43 0.28 4.14 -3.85 c 2.52 -1.59 2.85 -0.28 7.86 -4.12 z m -189.95 -91.05 c 2.31 4.58 3.18 2.19 5.01 3.91 c 21.17 -6 18.99 1.3 33.75 -0.1 c -6.63 -13.86 -32.81 -19.09 -38.76 -3.81 z m 268.99 -10.12 c -9.31 4.81 -9.05 7.16 -12.84 15.78 c -8.75 -0.07 -4.5 4.06 -13.62 0.29 c 3.67 7.71 -0.25 4.65 6.86 7.32 c 7.16 2.7 0.29 -4.08 5.9 2.17 l 1.98 3.23 c 0.27 0.41 0.69 1.34 1.12 1.95 c 1.12 -11.93 5.59 -16.39 10.67 -22.42 c 14.92 5.82 6.94 9.37 26.79 5.86 c -6.46 -3.99 -6.36 -2.77 -14.4 -5.22 c -11.64 -3.56 -4.48 -2.52 -12.46 -8.96" stroke-linecap="round"/>
</g>
		<g transform="matrix(0.1517 0 0 -0.1517 -48.6218 80.7445)" id="path286">
<path style="stroke: none; stroke-width: 1; stroke-dasharray: none; stroke-linecap: butt; stroke-dashoffset: 0; stroke-linejoin: miter; stroke-miterlimit: 4; is-custom-font: none; font-file-url: none; fill: rgb(28,31,86); fill-rule: nonzero; opacity: 1;" transform=" translate(-3806.0138, -1214.3997)" d="m 3820.27 1260.02 c -3.7 7.15 -7.69 14.41 -16.02 11.73 c -10.5 -3.4 -10.71 -18.4 -12.07 -29.2 c -0.97 -7.88 -0.17 -16.27 1.39 -24.14 c 4.51 -22.93 13.79 -43.37 26.7 -61.93 v 103.54" stroke-linecap="round"/>
</g>
		<g transform="matrix(0.1517 0 0 -0.1517 22.527 91.6819)" id="path288">
<path style="stroke: none; stroke-width: 1; stroke-dasharray: none; stroke-linecap: butt; stroke-dashoffset: 0; stroke-linejoin: miter; stroke-miterlimit: 4; is-custom-font: none; font-file-url: none; fill: rgb(28,31,86); fill-rule: nonzero; opacity: 1;" transform=" translate(-4274.85, -1142.2746)" d="m 4398.78 965.422 c 0 0 -28.61 -21.922 -117.25 13.277 c -88.64 35.201 -130.61 -2.648 -130.61 -9.625 v 332.406 c 0 6.97 42.45 44.82 131.11 9.62 c 88.63 -35.19 116.75 -13.35 116.75 -13.35 V 965.422" stroke-linecap="round"/>
</g>
</g>
</g>
</svg>